<?xml version="1.0" encoding="utf-8"?>
<!-- Generator: Adobe Illustrator 25.2.1, SVG Export Plug-In . SVG Version: 6.00 Build 0)  -->
<svg version="1.1" id="Layer_1" xmlns="http://www.w3.org/2000/svg" xmlns:xlink="http://www.w3.org/1999/xlink" x="0px" y="0px"
	 viewBox="0 0 1920 1080" style="enable-background:new 0 0 1920 1080;" xml:space="preserve">
<style type="text/css">
	.st0{fill:#FFFFFF;}
</style>
<path class="st0" d="M795.13,146.36c98.67-56.68,228.77-59.31,272.71,6.89c31.43,47.34,36.03,106.3,3.03,156.89
	c-31.65,48.53-160.03,75.84-224.28,163.11c-12.38,16.81-61.28,83.24-46.25,163.75c5.69,30.46,18.87,54.04,29.99,69.84
	c19.76-118.99,154.93-213.35,325.19-226.91c6.87-15.43,16.64-29.62,28.73-42.08c1.22-17.68,1.23-40.92,5.56-70.74
	c8.1-55.7,22.66-63.26,25.52-63.86c2.96-0.62,30.92-1.94,69.96,83.7c10.15-1.6,20.61-2.45,31.29-2.45c19.77,0,38.76,2.88,56.44,8.15
	c50.19-77.76,85.76-73.61,87.64-73.02c1.69,0.53,16.09,10.81,15.92,56.11c-0.16,41.88-2.5,70.99-6.73,89.19
	c12.29,20.46,19.23,43.68,19.23,68.31c0,13.48-2.09,26.54-5.99,38.95c26.1,23.57,42.71,78.05,42.71,140.67
	c0,142.9-126.13,176.63-330.48,176.63c-187.19,0-339.82-8.06-364.12-119.26C707.74,731.52,617.05,625.92,599.08,499.5
	C577.15,345.13,695.46,203.61,795.13,146.36z"/>
</svg>
